<?xml version="1.0" encoding="utf-8"?>
<!-- Generator: Adobe Illustrator 16.0.0, SVG Export Plug-In . SVG Version: 6.00 Build 0)  -->
<!DOCTYPE svg PUBLIC "-//W3C//DTD SVG 1.1//EN" "http://www.w3.org/Graphics/SVG/1.1/DTD/svg11.dtd">
<svg version="1.1" id="Layer_1" xmlns="http://www.w3.org/2000/svg" xmlns:xlink="http://www.w3.org/1999/xlink" x="0px" y="0px"
	 width="178.58px" height="31.18px" viewBox="0 0 178.58 31.18" enable-background="new 0 0 178.58 31.18" xml:space="preserve">
<path d="M173.597,23.54c1.801-2.5,2.6-5.1,2.4-7.899c0.199-8.301-6.6-15-15-15c-8.301,0-15,6.699-15,15
	c0,8.198,6.8,14.899,15,14.999c3.8-0.1,7.199-1.4,9.5-4l4.699,4l3.201-4L173.597,23.54z M171.196,15.641
	c0,5.698-4.6,10.3-10.299,10.3c-5.701,0-10.301-4.602-10.301-10.3c0-5.699,4.6-10.301,10.301-10.301
	C166.597,5.34,171.196,9.941,171.196,15.641L171.196,15.641z M120.597,29.94h18.2v-4h-13.5v-7.899h9.5V13.34h-9.5V5.441h13.399v-4
	h-18.199V29.94H120.597z M102.397,5.34h7.899v-4h-20.6v4h7.899v24.499h4.7L102.397,5.34L102.397,5.34z M68.298,29.94h15v-4h-10.3
	V1.441h-4.7V29.94z M43.798,0.641c-8.3,0-15,6.699-15,15c0,8.3,6.7,14.999,15,14.999s15-6.699,15-14.999
	C58.798,7.34,52.098,0.641,43.798,0.641z M54.098,15.641c0,5.698-4.6,10.3-10.3,10.3s-10.3-4.602-10.3-10.3
	c0-5.699,4.6-10.301,10.3-10.301S54.098,9.941,54.098,15.641L54.098,15.641z M5.798,8.541c0.2-2.5,2.2-3.701,4.7-4
	c2.4,0.299,4.1,2.199,4,4.699h4.7c0.1-5.1-3.9-8.699-8.7-8.699c-5.2,0-9.3,3.1-9.5,7.9c0.2,5.699,4.4,7.299,9.5,9.5
	c2.2,0.299,4.8,1.298,4.7,3.999c0,2.799-2.1,4.5-4.7,4.699c-3.2-0.301-5.6-2.4-5.5-6.301h-4.7c0,6.602,4.7,10.301,10.3,10.301
	c5,0,9.5-3.1,9.5-8.699c0-5.8-5.4-7.7-9.5-9.499C8.098,11.941,5.999,10.84,5.798,8.541L5.798,8.541z"/>
</svg>
